<?xml version="1.0" ?><svg style="enable-background:new 0 0 64 64;" version="1.1" viewBox="0 0 64 64" xml:space="preserve" xmlns="http://www.w3.org/2000/svg" xmlns:xlink="http://www.w3.org/1999/xlink"><style type="text/css">
	.st0{fill:#0072FF;}
</style><g id="GUIDES_64"/><g id="Layer_3"/><g id="Layer_2"><path class="st0" d="M55.7,42H30c-4,0-7.6,2.1-9.6,5.6l-3,5.3c-0.8,1.4,0.2,3.1,1.8,3.1h30.9c0.7,0,1.4-0.4,1.8-1.1l5.6-9.8   C58.3,43.7,57.3,42,55.7,42z"/><path class="st0" d="M40.3,8L28.9,8c-1.6,0-2.6,1.7-1.8,3.1L40,33.4c2,3.4,5.7,5.5,9.6,5.5l6.1,0c1.6,0,2.6-1.7,1.8-3.1L42.1,9   C41.7,8.4,41,8,40.3,8z"/><path class="st0" d="M11,51.4c0.8,1.4,2.8,1.4,3.6,0l12.9-22.3c2-3.4,2-7.7,0-11.1l-3.1-5.3c-0.8-1.4-2.8-1.4-3.6,0L5.3,39.5   c-0.4,0.6-0.4,1.4,0,2.1L11,51.4z"/></g></svg>