<?xml version="1.0" ?><svg style="enable-background:new 0 0 64 64;" version="1.1" viewBox="0 0 64 64" xml:space="preserve" xmlns="http://www.w3.org/2000/svg" xmlns:xlink="http://www.w3.org/1999/xlink"><style type="text/css">
	.st0{fill:#0072FF;}
</style><g id="GUIDES_64"/><g id="Layer_3"/><g id="Layer_2"><path class="st0" d="M53.7,4H10.3C6.8,4,4,6.8,4,10.3v43.5c0,3.5,2.8,6.3,6.3,6.3h43.5c3.5,0,6.3-2.8,6.3-6.3V10.3   C60,6.8,57.2,4,53.7,4z M44,39.8c0,1.2-1,2.2-2.2,2.2h-4.9c-1,0-1.8,0.8-1.8,1.8v6c0,1.7-1.3,3.2-2.9,3.3c-1.8,0.1-3.3-1.3-3.3-3.1   v-6.1c0-1-0.8-1.8-1.8-1.8h-4.9c-1.2,0-2.2-1-2.2-2.2V25.9c0,0,0-0.1,0-0.1C20.1,19.2,25.4,14,32,14c6.6,0,11.9,5.2,12,11.8   c0,0,0,0.1,0,0.1V39.8z"/></g></svg>